<?xml version="1.0" encoding="UTF-8" standalone="no"?>
<!-- Created with Inkscape (http://www.inkscape.org/) -->

<svg
   xmlns:dc="http://purl.org/dc/elements/1.1/"
   xmlns:cc="http://creativecommons.org/ns#"
   xmlns:rdf="http://www.w3.org/1999/02/22-rdf-syntax-ns#"
   xmlns:svg="http://www.w3.org/2000/svg"
   xmlns="http://www.w3.org/2000/svg"
   xmlns:xlink="http://www.w3.org/1999/xlink"
   xmlns:sodipodi="http://sodipodi.sourceforge.net/DTD/sodipodi-0.dtd"
   xmlns:inkscape="http://www.inkscape.org/namespaces/inkscape"
   width="142.24001mm"
   height="142.24001mm"
   viewBox="0 0 504.00001 504.00001"
   id="svg9077"
   version="1.1"
   inkscape:version="0.91 r13725"
   sodipodi:docname="icon.svg"
   inkscape:export-filename="/Users/alanrice/Projects/blinker/appicon.png"
   inkscape:export-xdpi="180"
   inkscape:export-ydpi="180">
  <defs
     id="defs9079">
    <linearGradient
       inkscape:collect="always"
       id="linearGradient10363">
      <stop
         style="stop-color:#000000;stop-opacity:0.09803922"
         offset="0"
         id="stop10365" />
      <stop
         style="stop-color:#000000;stop-opacity:0"
         offset="1"
         id="stop10367" />
    </linearGradient>
    <linearGradient
       inkscape:collect="always"
       id="linearGradient10293">
      <stop
         style="stop-color:#ffffff;stop-opacity:0.79670328"
         offset="0"
         id="stop10295" />
      <stop
         style="stop-color:#ffffff;stop-opacity:0.10439561"
         offset="1"
         id="stop10297" />
    </linearGradient>
    <linearGradient
       inkscape:collect="always"
       id="linearGradient10005">
      <stop
         style="stop-color:#ffffff;stop-opacity:0.09803922"
         offset="0"
         id="stop10007" />
      <stop
         style="stop-color:#000000;stop-opacity:0;"
         offset="1"
         id="stop10009" />
    </linearGradient>
    <linearGradient
       id="linearGradient9987"
       inkscape:collect="always">
      <stop
         id="stop9989"
         offset="0"
         style="stop-color:#000000;stop-opacity:0.08791209" />
      <stop
         id="stop9991"
         offset="1"
         style="stop-color:#000000;stop-opacity:0" />
    </linearGradient>
    <clipPath
       clipPathUnits="userSpaceOnUse"
       id="clipPath9902">
      <ellipse
         style="opacity:1;fill:#000000;fill-opacity:0.63186813;stroke:none;stroke-width:1;stroke-linecap:round;stroke-linejoin:miter;stroke-miterlimit:4;stroke-dasharray:none;stroke-dashoffset:0;stroke-opacity:0.5"
         id="ellipse9904"
         cx="-50.152344"
         cy="184.42155"
         rx="354.43741"
         ry="172.9113" />
    </clipPath>
    <linearGradient
       inkscape:collect="always"
       xlink:href="#linearGradient10363"
       id="linearGradient9981"
       x1="648.57123"
       y1="315.18161"
       x2="648.57123"
       y2="-124.17309"
       gradientUnits="userSpaceOnUse"
       gradientTransform="translate(-1.8769531e-5,0)" />
    <radialGradient
       inkscape:collect="always"
       xlink:href="#linearGradient9987"
       id="radialGradient9985"
       cx="479.24893"
       cy="106.87347"
       fx="479.24893"
       fy="106.87347"
       r="225"
       gradientUnits="userSpaceOnUse"
       gradientTransform="matrix(-0.01093942,-0.98454832,0.99993828,-0.01111042,518.64135,718.0637)" />
    <filter
       inkscape:collect="always"
       style="color-interpolation-filters:sRGB"
       id="filter9997"
       x="-0.012"
       width="1.024"
       y="-0.012"
       height="1.024">
      <feGaussianBlur
         inkscape:collect="always"
         stdDeviation="2.25"
         id="feGaussianBlur9999" />
    </filter>
    <radialGradient
       inkscape:collect="always"
       xlink:href="#linearGradient10005"
       id="radialGradient10011"
       cx="634.03564"
       cy="117.04126"
       fx="634.03564"
       fy="117.04126"
       r="52.5"
       gradientUnits="userSpaceOnUse"
       gradientTransform="matrix(0,-0.87515398,0.76190476,0,530.74689,644.0464)" />
    <filter
       inkscape:collect="always"
       style="color-interpolation-filters:sRGB"
       id="filter10217"
       x="-0.035999998"
       width="1.072"
       y="-0.035999998"
       height="1.072">
      <feGaussianBlur
         inkscape:collect="always"
         stdDeviation="1.2"
         id="feGaussianBlur10219" />
    </filter>
    <filter
       inkscape:collect="always"
       style="color-interpolation-filters:sRGB"
       id="filter10277"
       x="-0.72000003"
       width="2.4400001"
       y="-0.72000003"
       height="2.4400001">
      <feGaussianBlur
         inkscape:collect="always"
         stdDeviation="7.1324284"
         id="feGaussianBlur10279" />
    </filter>
    <filter
       inkscape:collect="always"
       style="color-interpolation-filters:sRGB"
       id="filter10289"
       x="-0.023981012"
       width="1.047962"
       y="-0.024019018"
       height="1.048038">
      <feGaussianBlur
         inkscape:collect="always"
         stdDeviation="1.853955"
         id="feGaussianBlur10291" />
    </filter>
    <radialGradient
       inkscape:collect="always"
       xlink:href="#linearGradient10293"
       id="radialGradient10299"
       cx="831.24841"
       cy="112.86196"
       fx="831.24841"
       fy="112.86196"
       r="97.220627"
       gradientTransform="matrix(0,-0.83539241,0.84658594,0,735.70106,807.28781)"
       gradientUnits="userSpaceOnUse" />
    <filter
       inkscape:collect="always"
       style="color-interpolation-filters:sRGB"
       id="filter10433"
       x="-0.059999999"
       width="1.12"
       y="-0.059999999"
       height="1.12">
      <feGaussianBlur
         inkscape:collect="always"
         stdDeviation="11.25"
         id="feGaussianBlur10435" />
    </filter>
    <filter
       inkscape:collect="always"
       style="color-interpolation-filters:sRGB"
       id="filter4203"
       x="-0.011989596"
       width="1.0239792"
       y="-0.012010422"
       height="1.0240208">
      <feGaussianBlur
         inkscape:collect="always"
         stdDeviation="1.212586"
         id="feGaussianBlur4205" />
    </filter>
  </defs>
  <sodipodi:namedview
     id="base"
     pagecolor="#ffffff"
     bordercolor="#666666"
     borderopacity="1.0"
     inkscape:pageopacity="0.0"
     inkscape:pageshadow="2"
     inkscape:zoom="0.81"
     inkscape:cx="212.26637"
     inkscape:cy="168.9629"
     inkscape:document-units="px"
     inkscape:current-layer="layer1"
     showgrid="false"
     showguides="true"
     inkscape:window-width="1440"
     inkscape:window-height="816"
     inkscape:window-x="16"
     inkscape:window-y="0"
     inkscape:window-maximized="0"
     fit-margin-top="0"
     fit-margin-left="0"
     fit-margin-right="0"
     fit-margin-bottom="0" />
  <metadata
     id="metadata9082">
    <rdf:RDF>
      <cc:Work
         rdf:about="">
        <dc:format>image/svg+xml</dc:format>
        <dc:type
           rdf:resource="http://purl.org/dc/dcmitype/StillImage" />
        <dc:title />
      </cc:Work>
    </rdf:RDF>
  </metadata>
  <g
     inkscape:label="Layer 1"
     inkscape:groupmode="layer"
     id="layer1"
     transform="translate(-366.8194,147.11153)">
    <circle
       style="opacity:1;fill:#000000;fill-opacity:0.29670332;stroke:none;stroke-width:1;stroke-linecap:round;stroke-linejoin:miter;stroke-miterlimit:4;stroke-dasharray:none;stroke-dashoffset:0;stroke-opacity:0.5;filter:url(#filter10433)"
       id="circle10383"
       cx="618.8194"
       cy="104.88847"
       r="225" />
    <circle
       style="opacity:1;fill:#000000;fill-opacity:0.22527472;stroke:none;stroke-width:1;stroke-linecap:round;stroke-linejoin:miter;stroke-miterlimit:4;stroke-dasharray:none;stroke-dashoffset:0;stroke-opacity:0.5;filter:url(#filter9997)"
       id="circle9995"
       cx="618.8194"
       cy="94.488457"
       r="225" />
    <circle
       r="225"
       cy="94.488457"
       cx="618.8194"
       id="circle9993"
       style="opacity:1;fill:#ffffff;fill-opacity:1;stroke:none;stroke-width:1;stroke-linecap:round;stroke-linejoin:miter;stroke-miterlimit:4;stroke-dasharray:none;stroke-dashoffset:0;stroke-opacity:0.5" />
    <circle
       cy="94.488457"
       cx="618.8194"
       id="circle9973"
       style="opacity:1;fill:#a593e0;fill-opacity:1;stroke:none;stroke-width:1;stroke-linecap:round;stroke-linejoin:miter;stroke-miterlimit:4;stroke-dasharray:none;stroke-dashoffset:0;stroke-opacity:0.5"
       r="205" />
    <circle
       style="opacity:1;fill:url(#linearGradient9981);fill-opacity:1;stroke:none;stroke-width:1;stroke-linecap:round;stroke-linejoin:miter;stroke-miterlimit:4;stroke-dasharray:none;stroke-dashoffset:0;stroke-opacity:0.5"
       id="path9971"
       cx="618.8194"
       cy="94.488457"
       r="225" />
    <g
       id="g4207">
      <circle
         transform="matrix(0.58832464,0,0,0.58832464,254.75269,-188.44169)"
         style="opacity:1;fill:#000000;fill-opacity:0.22527472;stroke:none;stroke-width:1;stroke-linecap:round;stroke-linejoin:miter;stroke-miterlimit:4;stroke-dasharray:none;stroke-dashoffset:0;stroke-opacity:0.5;filter:url(#filter9997)"
         id="circle10326"
         cx="618.8194"
         cy="480.9082"
         r="225" />
      <circle
         r="132.37305"
         cy="91.906548"
         cx="618.81934"
         id="circle10328"
         style="opacity:1;fill:#ddd6f2;fill-opacity:1;stroke:none;stroke-width:1;stroke-linecap:round;stroke-linejoin:miter;stroke-miterlimit:4;stroke-dasharray:none;stroke-dashoffset:0;stroke-opacity:0.5" />
      <circle
         cy="92.56662"
         cx="619.52271"
         id="circle10195"
         style="opacity:1;fill:#462599;fill-opacity:1;stroke:none;stroke-width:1;stroke-linecap:round;stroke-linejoin:miter;stroke-miterlimit:4;stroke-dasharray:none;stroke-dashoffset:0;stroke-opacity:0.5"
         r="123.24593" />
      <path
         sodipodi:type="star"
         style="opacity:1;fill:url(#radialGradient10299);fill-opacity:1;stroke:none;stroke-width:1;stroke-linecap:round;stroke-linejoin:miter;stroke-miterlimit:4;stroke-dasharray:none;stroke-dashoffset:0;stroke-opacity:0.5;filter:url(#filter10289)"
         id="path10283"
         sodipodi:sides="96"
         sodipodi:cx="828.06525"
         sodipodi:cy="116.82047"
         sodipodi:r1="92.007263"
         sodipodi:r2="32.202541"
         sodipodi:arg1="-1.5707963"
         sodipodi:arg2="-1.5380714"
         inkscape:flatsided="false"
         inkscape:rounded="0.14"
         inkscape:randomized="0.034"
         d="m 829.53471,26.056124 c 8.38154,0.215773 -9.94313,58.267287 -1.61923,58.218404 8.3239,-0.04888 -3.79743,-60.120084 4.65043,-59.239834 8.44785,0.880251 -10.70018,59.671643 -2.3087,60.197347 8.39149,0.525705 1.23047,-58.104986 9.65846,-57.142121 8.42799,0.962865 -12.72048,53.090011 -4.58498,54.557506 8.13549,1.467494 0.11548,-57.023068 8.32288,-55.762996 8.20739,1.260071 -14.93058,58.111708 -6.6605,59.824032 8.27007,1.712324 7.24398,-60.308156 15.15881,-57.733556 7.91483,2.574601 -20.99073,55.501022 -13.10378,58.049729 7.88696,2.548708 7.65305,-61.943925 15.65753,-59.661806 8.00447,2.28212 -23.92866,54.436502 -15.96195,57.289563 7.96672,2.853062 13.96561,-53.236041 21.61231,-49.815748 7.64671,3.420293 -26.08631,49.960816 -18.5976,53.633013 7.48871,3.672197 22.04913,-58.045398 29.35815,-54.146041 7.30902,3.899357 -32.31031,51.741419 -25.05052,55.71974 7.2598,3.97832 17.92207,-53.957884 25.16593,-49.808736 7.24386,4.149149 -33.12601,46.521379 -26.10032,50.836906 7.02569,4.315527 27.19434,-55.579646 33.93326,-50.637127 6.73893,4.942519 -38.25596,47.199461 -31.26396,52.05959 6.99199,4.860128 30.93952,-54.983237 37.71142,-50.138975 6.7719,4.844261 -41.21798,43.592025 -35.07194,49.138251 6.14603,5.546226 31.8276,-49.247095 37.76343,-43.470825 5.93583,5.77627 -47.20146,40.173269 -40.96406,45.628416 6.2374,5.455146 40.79622,-50.126393 46.69919,-44.255106 5.90297,5.871287 -47.48186,38.261135 -41.55103,44.061314 5.93083,5.800179 37.28221,-46.674298 42.50525,-40.138856 5.22304,6.535442 -49.1999,36.939235 -43.67433,43.373906 5.52558,6.434676 45.52241,-44.178071 50.85054,-37.655667 5.32814,6.522403 -53.21687,33.549143 -48.30995,40.301717 4.90693,6.752576 47.65179,-39.880734 52.43338,-32.86179 4.7816,7.018943 -54.86458,23.650725 -50.45822,30.818045 4.40636,7.167321 48.64191,-33.019477 53.09746,-25.945432 4.45554,7.074046 -55.17954,20.842233 -51.2379,28.109248 3.94164,7.267015 49.56586,-28.855925 52.9641,-21.29211 3.39823,7.563814 -56.32433,15.671177 -52.57458,23.075605 3.74975,7.40442 54.69209,-24.370828 58.16171,-16.591141 3.46962,7.779687 -63.55356,11.871871 -60.59616,19.662631 2.95739,7.79076 54.36518,-22.659357 57.22364,-14.687722 2.85846,7.971635 -53.77251,7.56418 -51.66005,15.749292 2.11245,8.18511 53.37571,-21.361662 55.14395,-13.187193 1.76825,8.174463 -60.02072,11.974533 -58.55072,20.173223 1.47001,8.19869 60.36938,-23.634132 61.81452,-15.421287 1.44514,8.212847 -62.6399,6.723177 -61.72701,14.966777 0.91289,8.24361 57.70063,-12.768918 58.81728,-4.54437 1.11666,8.22454 -57.02928,-2.42935 -56.30148,5.78265 0.7278,8.21199 56.7373,-10.93967 57.60402,-2.57089 0.86672,8.36879 -59.68841,-3.49474 -59.10783,4.7708 0.58057,8.26555 60.61936,-5.10098 60.39964,3.17307 -0.21972,8.27406 -60.04723,-9.79185 -60.38153,-1.50082 -0.33431,8.29103 59.32547,-4.06021 59.06135,4.18813 -0.26413,8.24835 -57.03872,-11.77006 -57.535,-3.41907 -0.49628,8.351 57.23409,2.35085 56.20499,10.7652 -1.0291,8.41435 -57.41919,-14.29904 -58.79776,-5.97608 -1.37857,8.32295 63.27941,4.34082 61.78456,12.53476 -1.49486,8.19395 -59.86487,-20.95996 -61.8446,-12.77748 -1.97973,8.18248 61.14567,12.24208 58.55726,20.3181 -2.58841,8.07602 -52.32206,-26.134 -55.12343,-18.322 -2.80138,7.812 54.42943,12.59008 51.60672,20.42404 -2.82271,7.83396 -54.70109,-26.3628 -57.24859,-18.39507 -2.5475,7.96772 63.69509,16.62192 60.69557,24.2918 -2.99953,7.66988 -54.50018,-25.49255 -58.23395,-17.86562 -3.73377,7.62693 56.4748,14.28523 52.61764,21.65994 -3.85717,7.37472 -48.79104,-26.72303 -52.98623,-19.47105 -4.19519,7.25197 55.59268,17.62199 51.22481,24.8147 -4.36787,7.19271 -48.83622,-33.29813 -53.05842,-26.03766 -4.22219,7.26048 55.2838,29.82161 50.48901,36.66514 -4.79479,6.84353 -47.33125,-42.43997 -52.44122,-35.83916 -5.10997,6.60081 53.35767,32.68416 48.2689,39.36178 -5.08878,6.67761 -45.7112,-43.81243 -50.78474,-37.17325 -5.07354,6.63918 48.91615,35.73155 43.5715,42.34784 -5.34466,6.61628 -36.85132,-49.35415 -42.49338,-43.01005 -5.64206,6.3441 47.51455,39.42241 41.59329,45.1857 -5.92127,5.7633 -40.32597,-47.95591 -46.7179,-42.57732 -6.39193,5.3786 47.22173,43.08289 40.93719,48.44488 -6.28454,5.36199 -31.15544,-53.3382 -37.72208,-48.17165 -6.56664,5.16655 41.95275,43.51249 35.07486,48.38473 -6.8779,4.87224 -30.71035,-52.12307 -37.6911,-47.46214 -6.98075,4.66094 38.30895,47.19681 31.1872,51.82583 -7.12175,4.62902 -26.60725,-52.8341 -33.94795,-48.70989 -7.34071,4.1242 33.38422,46.00338 26.15434,50.44806 -7.22988,4.44468 -17.90992,-53.33255 -25.20808,-48.95898 -7.29815,4.37356 32.78443,50.40115 25.12799,54.13251 -7.65644,3.73137 -21.90515,-58.66982 -29.42485,-54.79593 -7.51971,3.87389 26.39808,53.43172 18.59649,56.34623 -7.8016,2.91452 -13.7097,-53.99264 -21.60195,-51.12618 -7.89224,2.86645 23.77828,52.7838 15.97814,55.59796 -7.80014,2.81415 -7.69742,-59.16549 -15.66074,-56.35377 -7.96331,2.81173 21.13206,54.28439 13.12903,56.76104 -8.00304,2.47665 -7.05014,-58.34161 -15.1741,-56.22567 -8.12396,2.11593 14.96122,58.44808 6.69812,60.50401 -8.2631,2.05592 -0.23377,-60.36869 -8.3607,-58.87183 -8.12694,1.49685 12.90885,55.84951 4.52853,57.35176 -8.38032,1.50225 -1.14337,-57.24686 -9.59325,-56.5128 -8.44988,0.73405 10.58827,57.79881 2.25033,57.94934 -8.33794,0.15053 3.70395,-60.21549 -4.59408,-59.97321 -8.29803,0.24229 9.89512,60.61236 1.56731,60.58712 -8.32781,-0.0252 6.17692,-63.81242 -2.15791,-63.98391 -8.33482,-0.17149 2.74055,64.51183 -5.58399,64.37603 -8.32453,-0.1358 11.90991,-60.80575 3.58598,-61.90529 -8.32393,-1.09954 -2.73393,60.30023 -10.9293,59.39055 -8.19538,-0.90969 19.00177,-58.62819 10.84158,-60.12125 -8.1602,-1.49306 -5.06449,63.81498 -13.2055,62.16237 -8.14101,-1.65262 17.08702,-61.79116 8.72647,-63.34566 -8.36055,-1.55451 -6.61068,58.20331 -14.72494,56.21564 -8.11426,-1.98766 23.4365,-52.22088 15.48001,-54.3863 -7.95649,-2.16542 -12.63473,55.93945 -20.54014,53.54819 -7.90542,-2.39127 22.68278,-50.24745 14.93189,-53.31144 -7.7509,-3.06399 -12.72466,55.31105 -20.58226,52.09412 -7.85759,-3.21694 25.89408,-48.27068 18.16383,-51.42236 -7.73024,-3.15168 -16.60663,56.34826 -24.03532,52.33299 -7.42869,-4.01526 33.63869,-54.17731 26.32137,-57.96816 -7.31733,-3.79086 -24.1316,54.08287 -31.42876,49.96099 -7.29716,-4.12187 33.11974,-46.59851 26.10666,-50.98916 -7.01309,-4.39066 -26.98961,54.54721 -33.93971,50.09664 -6.95009,-4.45058 38.30872,-43.73069 31.37354,-48.43505 -6.93518,-4.70436 -26.0735,50.5445 -32.73222,45.59042 -6.65872,-4.95408 41.47039,-43.80607 35.07828,-49.29051 -6.39211,-5.48445 -36.57009,53.75547 -42.74898,48.17164 -6.17889,-5.58384 46.24641,-42.25784 40.02396,-47.98195 -6.22245,-5.72412 -40.17083,48.99792 -45.86865,42.98409 -5.69783,-6.01382 46.09945,-38.96915 40.38964,-45.13758 -5.7098,-6.16843 -37.08075,47.14798 -42.94556,41.11627 -5.86481,-6.0317 50.0312,-37.55865 44.3489,-43.85486 -5.68231,-6.29621 -46.51308,41.00069 -51.42208,34.27144 -4.90901,-6.72926 52.81189,-30.15085 48.20048,-36.97702 -4.61141,-6.82617 -42.25214,40.40606 -47.04167,33.55063 -4.78953,-6.85542 50.48615,-25.11078 45.74108,-31.98784 -4.74507,-6.87707 -48.26308,37.57131 -52.50117,30.43445 -4.2381,-7.13685 55.28254,-24.00403 51.57518,-31.47797 -3.70736,-7.47395 -49.10451,31.07397 -52.86107,23.68342 -3.75657,-7.39056 55.80897,-20.40209 52.1407,-27.81419 -3.66826,-7.4121 -49.50418,29.54049 -52.83878,21.72733 -3.33459,-7.81316 58.59145,-13.9819 55.61052,-21.91106 -2.98093,-7.92915 -57.92965,24.17901 -60.97385,16.44517 -3.04421,-7.73385 58.28449,-13.52343 55.51329,-21.37192 -2.7712,-7.8485 -54.33362,26.38846 -56.75853,18.26386 -2.42492,-8.12461 61.71761,-10.61561 60.15895,-18.84114 -1.55866,-8.22553 -55.38607,20.46712 -57.26284,12.23838 -1.87678,-8.22874 58.17798,-7.13361 56.83795,-15.36439 -1.34003,-8.23078 -58.76283,19.06209 -59.51015,10.71752 -0.74732,-8.34458 58.17685,-5.27337 57.57243,-13.59482 -0.60442,-8.32146 -61.39132,12.28731 -61.58848,3.83186 -0.19717,-8.45544 60.79807,5.23343 60.27565,-3.15404 -0.52242,-8.38746 -59.46862,7.39767 -59.19757,-0.97414 0.27104,-8.37181 58.63367,7.676 59.17946,-0.6981 0.54579,-8.3741 -61.08834,2.48462 -60.22917,-5.8049 0.85917,-8.28951 60.96161,10.64641 61.51946,2.15809 0.55785,-8.48832 -58.97539,-0.85732 -57.47594,-9.20952 1.49945,-8.352194 58.54387,14.48802 59.49063,6.05944 0.94676,-8.42858 -58.62828,-3.86685 -56.8955,-12.137161 1.73278,-8.270308 55.58724,17.809131 57.29293,9.703901 1.70568,-8.105239 -62.10395,-7.25988 -60.1655,-15.3937 1.93846,-8.133816 54.70816,21.47631 56.73801,13.24533 2.02985,-8.230977 -58.36392,-13.119298 -55.45997,-21.057897 2.90395,-7.938599 57.65006,30.640367 60.99881,22.894127 3.34874,-7.746245 -58.82151,-20.397428 -55.70992,-28.299876 3.11158,-7.902447 49.4634,32.861586 52.91102,25.242416 3.44761,-7.619178 -55.8374,-22.026233 -52.18377,-29.434347 3.65363,-7.408115 48.93836,37.140957 52.8832,29.592737 3.94485,-7.548222 -55.92468,-26.962014 -51.5621,-33.958963 4.36259,-6.996948 48.13473,34.969413 52.46214,27.805124 4.32741,-7.164294 -50.12142,-28.192934 -45.77187,-35.495336 4.34954,-7.302401 42.35907,41.921885 47.04952,35.150318 4.69045,-6.771568 -53.22701,-29.786044 -48.15944,-36.429981 5.06758,-6.643937 46.30227,40.912748 51.35628,34.300978 5.05401,-6.611768 -49.91414,-35.83963 -44.24606,-41.866875 5.66807,-6.027245 37.2022,48.303895 42.93368,42.032629 5.73149,-6.271268 -46.39739,-38.271017 -40.4319,-44.109433 5.96549,-5.838416 39.70517,49.516569 45.88736,43.848326 6.1822,-5.668239 -46.55807,-40.927301 -39.99708,-46.091335 6.56098,-5.164034 36.00869,48.448032 42.70762,43.470827 6.69893,-4.977205 -41.91339,-43.206474 -35.0812,-48.232467 6.83219,-5.025994 25.63859,50.470821 32.7119,45.7542 7.0733,-4.716621 -38.33556,-44.607898 -31.29677,-49.193878 7.03879,-4.585981 27.04985,54.00675 33.95439,49.250383 6.90454,-4.756368 -33.35849,-52.537071 -26.16068,-56.552298 7.1978,-4.015227 23.98052,58.629115 31.47091,55.063215 7.49038,-3.5659 -33.8535,-47.808481 -26.39884,-51.884088 7.45466,-4.075607 16.20422,53.534001 24.10203,50.35249 7.89781,-3.181511 -25.75231,-55.311444 -18.16272,-58.556892 7.58958,-3.245448 12.74384,58.151011 20.57189,55.10431 7.82804,-3.046702 -22.90526,-50.992972 -14.94809,-53.31959 7.95717,-2.326617 12.45155,58.366888 20.54336,56.210884 8.09181,-2.156005 -23.4363,-57.978279 -15.50526,-60.42446 7.93105,-2.446181 6.77806,59.977227 14.74023,57.743581 7.96216,-2.233646 -16.99537,-55.408516 -8.7641,-56.982377 8.23127,-1.573861 4.99736,59.664118 13.24333,58.728951 8.24596,-0.935167 -19.22145,-57.010806 -10.78513,-58.044516 8.43632,-1.033711 2.59391,55.195755 10.8641,54.264379 8.27018,-0.931376 -12.00637,-56.098963 -3.52762,-56.241406 8.47874,-0.142443 -2.82979,60.927972 5.52764,61.093508 8.35743,0.165536 -6.17171,-61.293877 2.20983,-61.078104 z"
         inkscape:transform-center-y="-23.727982"
         transform="matrix(1.2909524,0,0,1.2909524,-447.83181,-57.391407)"
         inkscape:transform-center-x="0.73093198" />
      <path
         inkscape:transform-center-x="0.70577964"
         transform="matrix(0.96558624,0,0,0.96685096,-413.80543,-51.913341)"
         inkscape:transform-center-y="-22.941414"
         d="m 1071.5622,30.270824 c 10.9625,-0.547874 -12.8988,75.895316 -2.1989,76.165956 10.7,0.27063 -5.2098,-73.089165 5.6044,-72.597294 10.8142,0.491872 -11.4867,77.581094 -0.9441,79.011214 10.5426,1.43013 4.3656,-81.48733 15.2179,-80.082742 10.8523,1.404589 -26.1923,76.948322 -15.5207,79.567932 10.6716,2.6196 10.938,-75.584837 21.2896,-72.632741 10.3515,2.952096 -24.3364,65.674871 -14.0128,68.703251 10.3236,3.02839 20.2707,-73.821582 30.5669,-70.346005 10.2962,3.475577 -33.9431,66.978635 -23.9798,71.128665 9.9633,4.15002 22.6653,-67.879811 32.5723,-63.64441 9.9069,4.2354 -42.2915,63.9846 -32.4509,68.75344 9.8406,4.76883 32.0489,-76.122858 41.5229,-70.785082 9.474,5.337775 -50.5368,64.099072 -41.1868,69.849192 9.3499,5.75012 39.3524,-70.484278 48.5168,-64.796378 9.1644,5.6879 -51.0718,63.253568 -42.1309,69.460748 8.941,6.20718 39.848,-66.017805 48.2251,-59.267435 8.3772,6.750371 -51.7116,55.395015 -43.4778,62.488635 8.2339,7.09362 40.0323,-67.671531 48.1466,-60.340485 8.1142,7.331045 -57.8908,55.297545 -50.5502,63.215285 7.3406,7.91774 55.4067,-62.532466 62.2211,-54.350253 6.8145,8.182213 -66.5756,42.278193 -59.8435,50.714293 6.732,8.43611 55.6418,-47.159626 61.8156,-38.406625 6.1737,8.753002 -64.4788,39.306245 -58.5162,48.434675 5.9626,9.12843 65.1866,-52.537247 70.8042,-43.468379 5.6176,9.068868 -72.9758,31.408149 -67.6166,40.971239 5.3592,9.56308 65.652,-44.714548 70.573,-34.952521 4.921,9.762031 -74.9056,27.469321 -70.128,37.231461 4.7776,9.76214 72.1846,-35.495227 76.3327,-25.67072 4.1481,9.82451 -76.0403,22.00689 -72.6322,32.31258 3.4082,10.30569 66.6089,-31.86131 69.4942,-21.58415 2.8853,10.27715 -75.248,11.62712 -72.6355,22.2517 2.6126,10.62457 75.8389,-21.06649 77.9333,-10.53466 2.0944,10.53183 -73.0669,2.62032 -70.8162,13.27612 2.2507,10.65581 73.3826,-16.82601 74.8232,-6.17047 1.4405,10.65554 -82.2509,4.48666 -80.7965,15.07807 1.4544,10.59141 76.5731,-19.96439 76.8488,-9.21229 0.2757,10.75209 -73.5906,-1.41464 -73.1645,9.32013 0.426,10.73476 80.2709,-4.23032 80.0509,6.50891 -0.2199,10.73923 -77.3417,-16.6011 -78.5436,-5.93499 -1.2018,10.66611 77.2795,0.0494 76.6042,10.67997 -0.6753,10.63059 -80.1078,-12.06253 -82.1693,-1.37065 -2.0616,10.69189 84.0281,5.25749 81.794,15.82262 -2.2341,10.56514 -78.1035,-25.79556 -80.7168,-15.22587 -2.6134,10.56969 75.1865,11.5635 71.9332,21.72293 -3.2533,10.15942 -71.0858,-28.3668 -74.3037,-18.15188 -3.2178,10.21492 80.8105,19.45652 77.5338,29.70116 -3.2768,10.24465 -70.8845,-35.16334 -75.1053,-25.22118 -4.2209,9.94216 74.3645,26.47726 69.4067,36.22987 -4.9578,9.75261 -67.1524,-45.78358 -72.0876,-36.16076 -4.9352,9.62283 72.8415,36.17179 67.5262,45.65666 -5.3152,9.48487 -59.8389,-47.10546 -65.6268,-37.79138 -5.7879,9.31408 65.5659,31.71369 59.1557,40.35533 -6.4103,8.64164 -61.7653,-50.64524 -68.7339,-42.32022 -6.9686,8.32501 73.0949,46.39459 66.1742,54.92747 -6.9206,8.53288 -56.1964,-61.71887 -63.499,-53.88557 -7.3025,7.83329 62.9074,49.93123 54.9659,57.32068 -7.9414,7.38945 -52.3772,-55.72019 -60.2494,-48.20481 -7.8721,7.51538 61.5836,48.8433 53.5784,55.93404 -8.0051,7.09074 -44.6219,-59.16135 -53.3714,-52.71376 -8.7496,6.44759 54.6057,54.74542 45.7525,61.04411 -8.8531,6.2987 -43.6241,-65.17346 -52.7704,-59.23503 -9.1464,5.93843 51.1389,60.4225 42.0313,65.92016 -9.1076,5.49766 -31.5686,-71.30462 -41.0133,-66.01529 -9.4448,5.28932 39.3844,65.02408 29.7578,69.62622 -9.6267,4.60215 -24.5511,-73.04525 -34.492,-69.21027 -9.9409,3.83497 39.0533,68.33621 28.8869,72.38447 -10.1664,4.04825 -17.6582,-74.89928 -27.7432,-71.15933 -10.085,3.73995 26.3423,67.82147 16.1531,71.29459 -10.1892,3.47312 -14.0535,-74.4179 -24.4424,-71.4538 -10.389,2.9641 27.5762,77.08083 16.8742,79.20052 -10.7021,2.11968 -9.8473,-76.77155 -20.4881,-74.84088 -10.6407,1.93068 18.0739,76.75193 7.1659,77.71989 -10.9079,0.96797 1.2713,-79.79005 -9.3799,-79.25961 -10.6512,0.53044 11.3947,76.86008 0.4081,77.18548 -10.9865,0.3254 10.0165,-75.90094 -0.9241,-76.21749 -10.9406,-0.31656 4.9869,71.9909 -5.9728,71.94368 -10.9598,-0.0472 10.771,-75.3017 0.1889,-76.52835 -10.5821,-1.22665 -4.8923,84.49739 -15.6161,82.91253 -10.7239,-1.58487 19.8166,-80.37815 9.2204,-82.69742 -10.5963,-2.31927 -5.3639,82.97267 -15.691,80.3953 -10.3271,-2.57738 27.1164,-75.85958 16.496,-78.62879 -10.6205,-2.76922 -12.634,76.42762 -22.9097,73.32166 -10.2756,-3.10596 26.4457,-73.00446 16.2425,-76.15824 -10.2032,-3.15377 -19.5535,75.1733 -29.5168,71.00922 -9.9633,-4.16408 40.7047,-68.7438 30.6475,-72.9329 -10.0572,-4.1891 -30.8932,78.86073 -40.7727,74.28615 -9.8795,-4.57458 43.7635,-65.15084 34.3761,-70.84732 -9.3873,-5.69647 -29.7631,64.20418 -38.923,58.52053 -9.1599,-5.68364 44.6289,-57.96012 35.4725,-63.47539 -9.1564,-5.51526 -35.8633,64.49379 -44.7448,58.64519 -8.88142,-5.8486 50.6573,-55.81901 42.1211,-62.37907 -8.5361,-6.56007 -43.38812,61.89674 -51.8358,55.29051 -8.44767,-6.60623 60.0418,-44.87996 52.0152,-52.36911 -8.0265,-7.48916 -52.42734,55.85038 -60.17325,48.38597 -7.7459,-7.46442 63.74845,-48.94507 56.91095,-57.3595 -6.8375,-8.41443 -58.36029,56.27068 -65.57163,48.17585 -7.21134,-8.09482 66.95783,-41.46631 59.95723,-49.90853 -7.0005,-8.44222 -54.31764,52.97631 -60.30287,44.18033 -5.98522,-8.79599 62.77297,-37.61903 57.11777,-47.02733 -5.6551,-9.40829 -60.39659,51.8942 -65.81124,42.66021 -5.41466,-9.234 72.92534,-37.61615 68.09184,-47.45982 -4.8336,-9.84366 -67.7627,42.4075 -72.5345,32.88287 -4.7718,-9.52464 73.7878,-23.66305 69.811,-33.60393 -3.9768,-9.94089 -70.01809,37.15994 -73.58131,27.05798 -3.56323,-10.10196 79.28231,-17.63676 75.51641,-27.85141 -3.7659,-10.21465 -77.75831,31.16244 -80.696,20.56817 -2.93768,-10.59427 80.7806,-17.51263 78.2757,-27.89048 -2.5049,-10.37784 -77.95434,27.83453 -80.51758,17.18173 -2.56324,-10.65279 79.10878,-7.7019 77.35128,-18.4149 -1.7575,-10.713 -72.87164,14.15623 -74.245,3.31098 -1.37336,-10.84526 73.6607,1.38104 73.0729,-9.53135 -0.5877,-10.91239 -74.66769,16.11541 -74.90869,5.39173 -0.24099,-10.72368 79.36819,2.46389 79.98289,-8.44406 0.6147,-10.90796 -77.48655,10.26374 -76.63416,-0.54994 0.8524,-10.81367 75.71786,15.04128 77.06656,4.17525 1.3486,-10.86603 -78.77619,-6.06196 -77.54744,-16.84501 1.22874,-10.78304 69.85504,17.48652 71.78114,6.71115 1.926,-10.77538 -73.32248,-9.21182 -71.296,-19.97401 2.02648,-10.76218 75.7655,31.39093 78.3528,20.97345 2.5873,-10.41749 -83.30365,-20.84502 -79.65545,-30.96756 3.6482,-10.12253 72.56255,33.84609 76.02395,23.49862 3.4614,-10.34748 -72.00798,-16.15198 -67.34089,-26.06221 4.6671,-9.910223 66.54889,31.64446 70.99859,21.92981 4.4496,-9.71465 -74.73974,-22.1748 -69.95478,-31.715856 4.78495,-9.541055 68.65598,39.444046 74.41408,30.106986 5.7582,-9.33706 -76.72589,-34.779948 -71.1628,-44.086076 5.56309,-9.306127 66.1148,55.317016 72.1361,46.435706 6.0214,-8.88132 -72.97709,-44.694429 -66.58437,-53.329394 6.39271,-8.634965 63.74207,57.471294 70.28337,48.938584 6.5414,-8.53271 -69.01708,-45.596991 -62.01304,-53.82137 7.00404,-8.224379 56.68404,54.88293 63.90564,46.96161 7.2216,-7.92133 -63.28259,-50.127429 -55.14828,-57.099493 8.13432,-6.972064 43.16318,63.372623 51.49758,56.560753 8.3345,-6.81186 -52.5087,-57.034677 -43.87085,-63.691606 8.63785,-6.656929 42.73325,69.216986 51.78955,63.029046 9.0564,-6.18794 -52.97887,-59.78021 -44.1612,-65.771596 8.8177,-5.991386 37.4422,67.559806 46.8653,62.421496 9.4231,-5.13831 -49.94292,-60.430522 -40.5512,-65.593502 9.3918,-5.16298 32.645,65.638612 42.5024,60.806732 9.8574,-4.83188 -38.1931,-60.356733 -28.2232,-64.963354 9.9699,-4.606621 18.1951,70.685914 28.3269,66.767014 10.1319,-3.91891 -32.1059,-67.069858 -21.8813,-71.113139 10.2246,-4.04328 16.4719,74.878169 27.0694,72.089649 10.5976,-2.78852 -30.1011,-74.578311 -19.7646,-77.245703 10.3364,-2.667391 16.3145,80.485503 27.0295,78.153523 10.715,-2.33198 -22.6412,-78.029374 -12.0949,-80.069776 10.5463,-2.040401 1.8956,77.902856 12.6487,76.321136 10.753,-1.58173 -16.6816,-74.259926 -6.0361,-74.786584 10.6454,-0.526659 0.5968,74.778394 11.4666,73.836494 10.8698,-0.9419 -9.7429,-78.049902 1.2197,-78.597776 z"
         inkscape:randomized="0.034"
         inkscape:rounded="0.14"
         inkscape:flatsided="false"
         sodipodi:arg2="-1.5289084"
         sodipodi:arg1="-1.5707963"
         sodipodi:r2="41.571949"
         sodipodi:r1="118.777"
         sodipodi:cy="150.80968"
         sodipodi:cx="1068.9928"
         sodipodi:sides="75"
         id="path10281"
         style="opacity:1;fill:#000000;fill-opacity:0.59340665;stroke:none;stroke-width:1;stroke-linecap:round;stroke-linejoin:miter;stroke-miterlimit:4;stroke-dasharray:none;stroke-dashoffset:0;stroke-opacity:0.5;filter:url(#filter4203)"
         sodipodi:type="star" />
      <g
         transform="matrix(1.2909524,0,0,1.2909524,-179.34371,-29.413477)"
         id="g10301">
        <circle
           style="opacity:1;fill:#000000;fill-opacity:1;stroke:none;stroke-width:1;stroke-linecap:round;stroke-linejoin:miter;stroke-miterlimit:4;stroke-dasharray:none;stroke-dashoffset:0;stroke-opacity:0.5;filter:url(#filter10217)"
           id="path10001"
           cx="618.8194"
           cy="94.488457"
           r="40" />
        <circle
           r="40"
           cy="94.488457"
           cx="618.8194"
           id="circle10003"
           style="opacity:1;fill:url(#radialGradient10011);fill-opacity:1;stroke:none;stroke-width:1;stroke-linecap:round;stroke-linejoin:miter;stroke-miterlimit:4;stroke-dasharray:none;stroke-dashoffset:0;stroke-opacity:0.5" />
        <circle
           style="opacity:1;fill:#ffffff;fill-opacity:0.81318683;stroke:none;stroke-width:1;stroke-linecap:round;stroke-linejoin:miter;stroke-miterlimit:4;stroke-dasharray:none;stroke-dashoffset:0;stroke-opacity:0.5;filter:url(#filter10277)"
           id="circle10013"
           cx="618.8194"
           cy="59.875835"
           r="11.887381"
           transform="matrix(0.76190476,0,0,0.76190476,147.33795,22.997252)" />
      </g>
    </g>
    <circle
       r="225"
       cy="94.488457"
       cx="618.8194"
       id="circle9983"
       style="opacity:1;fill:url(#radialGradient9985);fill-opacity:1;stroke:none;stroke-width:1;stroke-linecap:round;stroke-linejoin:miter;stroke-miterlimit:4;stroke-dasharray:none;stroke-dashoffset:0;stroke-opacity:0.5" />
  </g>
</svg>
