<?xml version="1.0" encoding="UTF-8" standalone="no"?>
<svg
   xmlns:dc="http://purl.org/dc/elements/1.1/"
   xmlns:cc="http://creativecommons.org/ns#"
   xmlns:rdf="http://www.w3.org/1999/02/22-rdf-syntax-ns#"
   xmlns:svg="http://www.w3.org/2000/svg"
   xmlns="http://www.w3.org/2000/svg"
   xmlns:sodipodi="http://sodipodi.sourceforge.net/DTD/sodipodi-0.dtd"
   xmlns:inkscape="http://www.inkscape.org/namespaces/inkscape"
   version="1.1"
   id="svg2"
   viewBox="0 0 367.90545 184.77921"
   height="52.1488mm"
   width="103.83109mm"
   inkscape:version="0.91 r13725"
   sodipodi:docname="logo.svg">
  <sodipodi:namedview
     pagecolor="#ffffff"
     bordercolor="#666666"
     borderopacity="1"
     objecttolerance="10"
     gridtolerance="10"
     guidetolerance="10"
     inkscape:pageopacity="0"
     inkscape:pageshadow="2"
     inkscape:window-width="1230"
     inkscape:window-height="789"
     id="namedview4142"
     showgrid="false"
     inkscape:zoom="2.6773183"
     inkscape:cx="183.95272"
     inkscape:cy="92.389606"
     inkscape:window-x="0"
     inkscape:window-y="0"
     inkscape:window-maximized="0"
     inkscape:current-layer="svg2" />
  <defs
     id="defs4" />
  <metadata
     id="metadata7">
    <rdf:RDF>
      <cc:Work
         rdf:about="">
        <dc:format>image/svg+xml</dc:format>
        <dc:type
           rdf:resource="http://purl.org/dc/dcmitype/StillImage" />
        <dc:title />
      </cc:Work>
    </rdf:RDF>
  </metadata>
  <g
     transform="translate(-29.273254,-64.446901)"
     id="layer1">
    <g
       style="font-style:normal;font-variant:normal;font-weight:normal;font-stretch:normal;font-size:80px;line-height:125%;font-family:Dosis;-inkscape-font-specification:Dosis;letter-spacing:-0.80000001px;word-spacing:0px;fill:#000000;fill-opacity:1;stroke:none;stroke-width:1px;stroke-linecap:butt;stroke-linejoin:miter;stroke-opacity:1"
       id="text4136">
      <path
         d="m 82.42286,175.27651 0,-52.88 q 0,-1.28 1.12,-2 1.12,-0.8 2.64,-0.8 l 28.48,0 q 1.36,0 2.08,1.12 0.72,1.12 0.72,2.56 0,1.6 -0.8,2.72 -0.72,1.12 -2,1.12 l -23.76,0 0,18.32 12.32,0 q 1.28,0 2,1.04 0.8,0.96 0.8,2.4 0,1.28 -0.72,2.32 -0.72,0.96 -2.08,0.96 l -12.32,0 0,18.4 23.76,0 q 1.28,0 2,1.12 0.8,1.12 0.8,2.72 0,1.44 -0.72,2.56 -0.72,1.12 -2.08,1.12 l -28.48,0 q -1.52,0 -2.64,-0.72 -1.12,-0.8 -1.12,-2.08 z"
         style="font-style:normal;font-variant:normal;font-weight:600;font-stretch:normal;font-family:Dosis;-inkscape-font-specification:'Dosis Semi-Bold';fill:#a593e0;fill-opacity:1"
         id="path4145" />
      <path
         d="m 117.31286,196.07651 q -3.92,0 -3.92,-3.6 0,-3.6 2.32,-3.6 3.6,0 7.12,-3.44 3.52,-3.44 4.32,-9.68 l -13.44,-31.04 q -0.32,-0.4 -0.32,-1.12 0,-1.52 1.84,-2.72 1.84,-1.28 3.68,-1.28 2,0 2.56,1.52 l 10.08,26 8.64,-26 q 0.72,-1.52 2.4,-1.52 1.68,0 3.6,1.28 2,1.2 2,2.88 0,0.72 -0.16,0.96 l -11.84,31.28 -1.36,3.6 q -0.48,1.12 -1.52,3.44 -0.96,2.32 -1.68,3.52 l -1.92,2.96 q -1.2,1.84 -2.4,2.72 -1.2,0.96 -2.72,1.92 -1.52,1.04 -3.36,1.44 -1.84,0.48 -3.92,0.48 z"
         style="font-style:normal;font-variant:normal;font-weight:600;font-stretch:normal;font-family:Dosis;-inkscape-font-specification:'Dosis Semi-Bold';fill:#a593e0;fill-opacity:1"
         id="path4147" />
      <path
         d="m 151.31536,162.79651 0,-7.6 q 0,-6.32 4.88,-10.88 4.88,-4.64 11.76,-4.64 6.56,0 11.2,4.24 4.72,4.16 4.72,10.56 0,2.4 -0.56,3.92 -0.56,1.44 -1.76,2.08 -1.2,0.56 -2.24,0.72 -1.04,0.16 -2.72,0.16 l -16.88,0 0,1.84 q 0,4 2.88,6.4 2.88,2.32 7.52,2.32 3.28,0 6.16,-1.52 2.96,-1.52 3.6,-1.52 1.36,0 2.32,1.28 0.96,1.28 0.96,2.48 0,2 -3.84,4.08 -3.84,2 -9.44,2 -8.16,0 -13.36,-4.4 -5.2,-4.4 -5.2,-11.52 z m 8.4,-6.64 13.28,0 q 1.76,0 2.32,-0.48 0.64,-0.48 0.64,-1.92 0,-3.2 -2.32,-5.44 -2.32,-2.24 -5.76,-2.24 -3.36,0 -5.76,2.16 -2.4,2.08 -2.4,5.36 l 0,2.56 z"
         style="font-style:normal;font-variant:normal;font-weight:600;font-stretch:normal;font-family:Dosis;-inkscape-font-specification:'Dosis Semi-Bold';fill:#a593e0;fill-opacity:1"
         id="path4149" />
      <path
         d="m 205.94161,175.27651 0,-52.96 q 0,-1.12 0.88,-1.92 0.96,-0.8 2.4,-0.8 l 15.6,0 q 8,0 12.72,4.24 4.8,4.24 4.8,13.36 l 0,0.64 q 0,9.12 -4.96,13.44 -4.88,4.24 -13.04,4.24 l -9.92,0 0,19.76 q 0,1.28 -1.28,2.08 -1.2,0.72 -2.96,0.72 -1.68,0 -2.96,-0.72 -1.28,-0.8 -1.28,-2.08 z m 8.48,-26.48 9.92,0 q 4.56,0 7.04,-2.56 2.48,-2.64 2.48,-7.84 l 0,-0.96 q 0,-5.2 -2.48,-7.76 -2.48,-2.56 -7.04,-2.56 l -9.92,0 0,21.68 z"
         style="font-style:normal;font-variant:normal;font-weight:600;font-stretch:normal;font-family:Dosis;-inkscape-font-specification:'Dosis Semi-Bold';fill:#a593e0;fill-opacity:1"
         id="path4151" />
      <path
         d="m 247.23036,175.27651 0,-32.4 q 0,-1.2 1.12,-1.92 1.2,-0.8 2.96,-0.8 1.6,0 2.72,0.8 1.12,0.72 1.12,1.92 l 0,3.52 q 1.36,-2.8 4.08,-4.72 2.8,-2 6.08,-2 l 2.56,0 q 1.28,0 2.24,1.12 0.96,1.04 0.96,2.56 0,1.52 -0.96,2.64 -0.96,1.12 -2.24,1.12 l -2.56,0 q -3.84,0 -6.8,3.28 -2.88,3.28 -2.88,8.48 l 0,16.4 q 0,1.04 -1.28,1.92 -1.28,0.88 -3.04,0.88 -1.76,0 -2.96,-0.88 -1.12,-0.88 -1.12,-1.92 z"
         style="font-style:normal;font-variant:normal;font-weight:600;font-stretch:normal;font-family:Dosis;-inkscape-font-specification:'Dosis Semi-Bold';fill:#a593e0;fill-opacity:1"
         id="path4153" />
      <path
         d="m 272.72286,162.79651 0,-7.36 q 0,-6.32 4.88,-11.04 4.88,-4.72 11.68,-4.72 6.64,0 11.6,4.72 4.96,4.64 4.96,11.04 l 0,7.36 q 0,6.24 -5.04,11.12 -4.96,4.8 -11.52,4.8 -6.64,0 -11.6,-4.8 -4.96,-4.8 -4.96,-11.12 z m 8.4,0 q 0,3.28 2.4,5.92 2.4,2.56 5.76,2.56 3.28,0 5.68,-2.56 2.48,-2.64 2.48,-5.92 l 0,-7.36 q 0,-3.2 -2.48,-5.76 -2.4,-2.56 -5.68,-2.56 -3.36,0 -5.76,2.56 -2.4,2.56 -2.4,5.76 l 0,7.36 z"
         style="font-style:normal;font-variant:normal;font-weight:600;font-stretch:normal;font-family:Dosis;-inkscape-font-specification:'Dosis Semi-Bold';fill:#a593e0;fill-opacity:1"
         id="path4155" />
      <path
         d="m 310.9091,162.79651 0,-7.36 q 0,-6.48 4.16,-11.12 4.24,-4.64 10.16,-4.64 3.52,0 6.24,1.76 2.72,1.76 4.16,4.32 l 0,-25.44 q 0,-1.2 1.2,-1.92 1.2,-0.8 3.04,-0.8 1.84,0 2.96,0.8 1.2,0.72 1.2,1.92 l 0,54.96 q 0,1.04 -1.2,1.92 -1.2,0.88 -2.96,0.88 -1.52,0 -2.72,-0.88 -1.12,-0.88 -1.12,-1.92 l 0,-2.8 q -1.28,2.56 -4.4,4.4 -3.04,1.84 -6.64,1.84 -5.6,0 -9.84,-4.8 -4.24,-4.88 -4.24,-11.12 z m 8.4,0 q 0,3.28 2.4,5.92 2.4,2.56 5.68,2.56 3.12,0 5.68,-2.4 2.56,-2.48 2.56,-4.24 l 0,-9.2 q 0,-3.68 -2.48,-6 -2.48,-2.32 -5.68,-2.32 -3.28,0 -5.76,2.56 -2.4,2.56 -2.4,5.76 l 0,7.36 z"
         style="font-style:normal;font-variant:normal;font-weight:600;font-stretch:normal;font-family:Dosis;-inkscape-font-specification:'Dosis Semi-Bold';fill:#a593e0;fill-opacity:1"
         id="path4157" />
    </g>
  </g>
</svg>
